PathFileType	4	(X/Y/Z)	PS_ngait_og_ss1.trc	
DataRate	CameraRate	NumFrames	NumMarkers	Units	OrigDataRate	OrigDataStartFrame	OrigNumFrames	
120.00	120.00	9	36	mm	120.00	733	132	
Frame#	Time	Sternum			Neck			RShoulder			LShoulder			Xiphoid			Thoracic			RAsis			LAsis			RPsis			LPsis			LThighSuperior			LThighInferior			LThighLateral			LShankSuperior			LShankInferior			LShankLateral			RThighSuperior			RThighInferior			RThighLateral			RShankSuperior			RShankInferior			RShankLateral			RHeel			RToe			RMidfootLateral			RHindfoot			LHeel			LToe			LMidfootMedial			LMidfootLateral			LHindfoot			LMidfootSuperior			LToeMedial			LToeLateral			Sacral			RMidfootSuperior			
		X1	Y1	Z1	X2	Y2	Z2	X3	Y3	Z3	X4	Y4	Z4	X5	Y5	Z5	X6	Y6	Z6	X7	Y7	Z7	X8	Y8	Z8	X9	Y9	Z9	X10	Y10	Z10	X11	Y11	Z11	X12	Y12	Z12	X13	Y13	Z13	X14	Y14	Z14	X15	Y15	Z15	X16	Y16	Z16	X17	Y17	Z17	X18	Y18	Z18	X19	Y19	Z19	X20	Y20	Z20	X21	Y21	Z21	X22	Y22	Z22	X23	Y23	Z23	X24	Y24	Z24	X25	Y25	Z25	X26	Y26	Z26	X27	Y27	Z27	X28	Y28	Z28	X29	Y29	Z29	X30	Y30	Z30	X31	Y31	Z31	X32	Y32	Z32	X33	Y33	Z33	X34	Y34	Z34	X35	Y35	Z35	X36	Y36	Z36	

116	0.958	1147.39148	1443.21204	201.35443	987.79004	1545.98877	209.85207	1035.46448	1530.31970	368.28333	1016.01251	1536.55920	69.44341	1177.68701	1282.69678	205.68320	901.02521	1329.99829	214.72728	1088.73657	1024.22742	344.09869	1095.99390	1014.78925	69.63342	900.74518	1047.57422	259.55777	898.22992	1040.36438	156.25676	1075.95654	847.77264	10.93397	1183.66113	640.46948	32.02496	1216.78687	765.57245	80.03442	1210.88037	416.21014	25.93919	1182.37549	217.96333	63.42189	1236.96448	312.60699	95.34382	1014.27545	824.30231	382.91104	993.42316	586.59613	343.33603	1097.33862	733.13361	313.03540	951.92792	430.52170	343.05304	906.56628	180.16594	295.64349	980.66766	298.87396	259.78894	800.42413	70.33714	240.98778	1117.58240	43.68436	240.31659	1017.49768	29.23235	312.00269	963.68054	31.47334	303.75601	1093.96338	93.08582	121.79562	1402.78479	84.62564	65.87839	1312.62537	62.69136	134.34521	1295.51062	52.77246	20.54498	1244.09583	53.67785	36.63342	1283.60242	123.49670	84.45689	1353.48853	63.82629	124.04338	1339.52502	63.60158	20.96860	899.48755	1043.96936	207.90727			 
117	0.967	1156.26086	1441.90991	201.72194	997.09674	1545.18420	209.85100	1044.32275	1529.29944	368.40213	1025.63745	1535.63904	69.61253	1186.21619	1281.32568	206.14255	909.58197	1329.45093	214.25984	1095.78455	1023.27155	344.29492	1104.34607	1013.44366	69.76446	908.24768	1046.89978	258.82706	906.23553	1039.52051	155.44231	1083.41089	846.15546	10.17553	1190.10950	638.86078	33.11446	1223.52600	763.80042	80.80235	1224.30969	414.47391	26.92165	1206.33337	214.54347	63.51054	1256.40173	311.98904	95.05488	1019.74146	823.98322	382.94214	996.93683	586.24243	343.33319	1102.17004	731.74701	313.60565	954.22375	430.45355	343.11368	907.08685	180.24690	295.59372	982.37231	298.62180	260.06705	800.52783	70.52184	240.85451	1117.63062	43.53711	240.28716	1017.46710	29.03068	311.97961	963.08044	31.25216	303.66119	1124.27515	85.83297	121.35592	1432.70691	89.25107	63.43527	1344.02783	64.06976	132.71382	1326.46252	52.93847	19.40559	1275.21130	52.29080	35.48176	1312.35352	123.82411	82.81111	1384.73230	66.78509	122.08355	1369.99280	65.49786	19.12467	907.24164	1043.21021	207.13469			 
118	0.975	1165.29858	1440.56482	202.16577	1006.34644	1544.21045	209.97542	1053.10547	1528.09082	368.49557	1035.34424	1534.67664	69.70795	1194.58838	1279.70813	206.65010	918.12659	1328.71265	213.62192	1102.85144	1022.26569	344.37268	1112.84802	1011.92151	69.99761	915.80127	1046.11523	257.90854	914.31702	1038.69348	154.47589	1090.51074	844.45862	9.76858	1196.20386	637.17255	34.55547	1230.12146	761.89532	81.72504	1237.33569	412.89630	28.07014	1229.69043	211.93510	63.17151	1275.16077	311.92310	94.59772	1025.17932	823.59851	383.08237	1000.62366	585.74207	343.27820	1107.17627	730.39294	313.89954	956.70111	430.40320	343.10672	907.66504	180.37737	295.65274	984.04193	298.20291	260.35428	800.55530	70.59856	240.76044	1117.82434	43.23491	240.18613	1017.47632	28.95983	311.98190	963.80902	31.13497	303.68851	1154.64453	78.62965	121.02499	1462.02881	94.50382	60.88305	1374.63647	66.05592	130.58415	1356.73669	54.47118	17.60851	1305.59741	51.83169	34.32143	1340.49670	124.77045	81.09657	1415.18726	70.24194	119.73146	1399.96790	68.61964	16.84715	915.05914	1042.40442	206.19221			 
119	0.983	1174.34204	1439.04602	202.65659	1015.71655	1543.16284	209.99957	1061.97485	1526.83765	368.57526	1045.17468	1533.65833	69.77409	1203.16650	1278.10840	207.34888	926.82654	1327.84875	212.94101	1110.04468	1021.09619	344.42056	1121.49353	1010.09058	70.27698	923.49030	1045.16199	256.95328	922.53577	1037.57007	153.51283	1097.30676	842.48010	9.80355	1201.99390	635.20251	36.43839	1236.45300	759.58466	82.89510	1249.99207	411.33994	29.29528	1252.37012	210.16718	62.85827	1293.57361	311.83969	94.83314	1030.80225	823.10370	383.10522	1004.58667	585.21411	343.29788	1112.40149	729.09015	313.88782	959.29694	430.14954	343.15512	908.22028	180.35654	295.58035	985.94348	297.79901	260.60345	800.64929	70.85217	240.84561	1117.88342	43.07256	240.23752	1017.55377	28.88402	312.10968	963.98096	31.16873	303.76364	1184.99084	71.27501	120.56271	1490.31628	101.05226	58.42101	1404.47485	69.50071	128.74518	1386.11108	56.99454	16.05509	1335.00732	52.81614	32.81593	1367.84998	126.77498	79.56736	1444.78711	75.17417	117.60991	1428.97595	72.80635	14.82937	923.01300	1041.36597	205.23306			 
120	0.992	1183.45789	1437.45825	203.09875	1025.09863	1542.03333	210.01398	1070.89197	1525.51892	368.61090	1055.13013	1532.63367	69.85033	1211.77686	1276.47473	207.88074	935.40619	1327.05640	212.21480	1117.22510	1019.86609	344.52454	1130.12769	1008.46942	70.51415	931.16315	1044.10132	256.06052	930.72058	1036.36865	152.52600	1103.94006	840.14935	10.27608	1207.62134	632.88025	38.75886	1242.64148	757.16394	84.08749	1262.18091	409.77039	30.49097	1274.31165	208.73409	63.05044	1311.28394	312.10880	95.13656	1036.75659	822.60675	383.01660	1008.71423	584.75549	343.27945	1117.88208	727.84973	313.57367	962.01208	430.08783	343.24585	908.91272	180.49126	295.53183	987.86237	297.32474	260.76611	800.60870	71.46434	241.38171	1117.80103	43.09443	240.11014	1017.38525	28.56601	311.97455	963.78424	31.14651	303.77206	1211.15369	68.26484	121.45355	1517.13708	109.12156	56.09041	1433.15125	73.75671	127.00314	1414.19690	61.08635	14.58573	1363.72485	54.40947	31.99372	1394.06018	129.84285	78.67879	1473.18201	81.12509	115.50465	1456.60083	78.68996	12.84707	930.94189	1040.23499	204.29326			 
121	1.000	1192.70288	1435.90149	203.62430	1034.53247	1540.88660	210.03712	1079.80212	1524.10205	368.62979	1065.25830	1531.59265	69.81288	1220.52136	1274.73779	208.66745	944.06830	1326.13098	211.34192	1124.49902	1019.01721	344.55688	1138.91064	1006.65735	70.75043	938.91089	1042.94434	255.02766	939.05670	1035.18738	151.43764	1110.37976	837.49811	10.78610	1213.05530	630.23755	41.11683	1248.64099	754.57434	85.43662	1274.18152	408.68646	31.76213	1295.17859	207.78288	63.40201	1328.34253	312.64655	95.54408	1042.77551	822.11853	383.00638	1013.13800	584.18768	343.18610	1123.64380	726.67169	313.00021	965.01361	430.10535	343.21439	909.75800	180.63013	295.48367	989.95111	296.83658	260.98123	800.92120	71.69674	241.08469	1117.86230	43.01489	240.18384	1017.48047	28.61013	312.09451	962.92786	30.94647	303.70169	1237.46936	65.25880	122.34476	1542.41577	118.22962	54.34412	1460.78833	79.10412	126.04748	1441.46606	65.90659	13.61596	1390.98730	57.53425	31.00651	1418.80554	133.74968	78.08527	1500.34436	88.23940	114.14789	1482.82446	85.24873	11.66106	938.98383	1039.06592	203.23265			 
122	1.008	1201.93420	1434.21790	204.13087	1044.04175	1539.67285	210.01154	1088.76196	1522.56799	368.66360	1075.26001	1530.33118	69.97761	1229.24390	1273.08398	209.39043	952.71466	1325.08142	210.59711	1131.87427	1018.05408	344.64017	1147.83618	1004.85052	71.08152	946.77716	1041.61304	254.00943	947.51093	1033.78748	150.43629	1117.29590	834.83508	11.60135	1218.96570	627.58313	43.78002	1254.61169	751.95923	86.95972	1285.60693	406.54932	32.43788	1315.46313	207.35280	64.47398	1344.60229	313.46252	96.29848	1049.24670	821.43030	382.86548	1017.79675	583.56238	343.10202	1129.69739	725.54260	312.25769	968.31354	429.54428	342.94022	910.56299	180.76552	295.37924	992.12433	296.74124	261.38715	800.91724	72.28680	241.07642	1118.00037	42.95755	240.32074	1017.54144	28.54935	312.20779	963.63574	30.89430	303.68851	1263.74475	62.24929	123.17970	1566.19250	127.96653	53.64721	1486.81201	85.19903	125.74893	1467.21399	71.60433	13.71347	1417.35095	61.04432	31.38559	1442.09741	138.30972	78.17392	1525.84558	96.01839	113.62504	1507.72998	92.67430	11.25276	947.14404	1037.70020	202.22285			 
123	1.017	1211.22876	1432.36865	204.60468	1053.50110	1538.27979	209.97482	1097.71313	1521.04224	368.50156	1085.49817	1529.13867	70.01813	1238.17542	1271.35474	210.14464	961.51654	1324.02454	209.57925	1139.42859	1016.76404	344.47888	1156.69263	1003.17072	71.14277	954.74695	1040.10413	252.95035	955.94476	1032.22656	149.37480	1124.17419	833.03638	10.97741	1224.83826	625.79291	45.00404	1260.52991	749.30975	88.28518	1297.30042	405.54263	34.16137	1334.88074	207.11546	65.79065	1360.09290	314.79822	97.52447	1055.71167	820.65167	382.79633	1022.73041	582.96350	343.13052	1136.03613	724.43231	311.49094	971.73834	429.21417	342.90530	911.64301	181.07314	295.38828	994.53680	296.28366	261.56946	801.13770	72.90047	241.33897	1118.14404	42.78641	240.41800	1017.44147	28.38121	312.35147	963.85126	31.01151	303.81650	1290.29517	59.41200	124.12811	1588.21582	137.85840	53.77332	1511.21204	91.86504	126.33174	1491.30176	77.77953	14.27110	1442.35388	65.02745	32.22201	1464.16797	142.98000	79.24507	1549.63599	104.20821	113.98260	1530.85327	100.38764	11.74731	955.34583	1036.16541	201.16257			 
124	1.025	1220.66235	1430.43555	205.04260	1063.00000	1536.83069	209.75700	1106.81055	1519.43469	368.41013	1095.68933	1527.78882	69.92267	1246.95093	1269.31287	210.65627	970.38776	1322.72888	208.64658	1147.43091	1015.55792	344.25702	1165.59717	1001.32013	71.21378	963.03656	1038.59534	252.07562	964.47906	1030.54834	148.42067	1130.31519	830.28418	11.77070	1231.22241	623.94324	45.93358	1266.61523	746.74780	89.60614	1308.94421	404.34058	35.89716	1353.06738	207.09811	67.61330	1374.78198	315.54498	98.97547	1062.52576	819.81488	382.77551	1027.88025	582.36005	343.15347	1142.63489	723.28912	310.93933	975.40668	429.01215	342.87360	912.69873	181.20079	295.31482	997.00098	295.89221	261.66043	801.36755	73.43305	241.38626	1118.29761	42.60479	240.50760	1017.55457	28.28623	312.18338	962.98865	30.96846	303.68463	1316.82104	56.39476	124.99400	1608.74353	147.38890	55.19837	1533.63867	98.37097	127.99976	1514.03198	83.49003	15.83229	1465.56274	68.58105	34.37476	1484.45044	147.57910	80.93661	1571.62329	112.26326	115.48254	1552.80066	107.71107	13.28457	963.75781	1034.57190	200.24814			 
